<?xml version="1.0" standalone="no"?>
<!DOCTYPE svg PUBLIC "-//W3C//DTD SVG 20010904//EN"
 "http://www.w3.org/TR/2001/REC-SVG-20010904/DTD/svg10.dtd">
<svg version="1.0" xmlns="http://www.w3.org/2000/svg"
 width="223.000000pt" height="226.000000pt" viewBox="0 0 223.000000 226.000000"
 preserveAspectRatio="xMidYMid meet">

<g transform="translate(0.000000,226.000000) scale(0.100000,-0.100000)"
fill="#000000" stroke="none">
<path d="M985 2250 c-458 -59 -831 -387 -952 -837 -24 -89 -27 -114 -27 -278
1 -161 3 -190 26 -276 90 -333 291 -588 583 -734 202 -101 404 -139 619 -117
325 34 599 189 794 448 63 83 137 223 126 234 -12 12 -176 102 -178 98 -2 -2
-20 -34 -40 -73 -133 -245 -314 -402 -556 -480 -70 -23 -109 -28 -223 -33 -86
-3 -167 0 -215 8 -168 27 -334 97 -462 196 l-68 52 -42 -19 c-23 -10 -46 -19
-51 -19 -5 0 -9 36 -9 81 0 70 -3 84 -25 113 -41 53 -112 215 -136 311 -21 78
-24 113 -23 260 0 151 3 181 26 267 31 113 87 238 148 329 58 85 188 213 279
274 199 131 480 200 718 176 53 -6 99 -9 101 -7 1 2 -25 9 -60 15 -88 16 -270
22 -353 11z"/>
<path d="M1738 1858 l-48 -10 0 -180 0 -181 36 6 c54 9 64 22 64 86 l0 56 51
-57 c54 -62 83 -72 112 -40 24 26 22 34 -22 88 l-39 49 29 33 c40 45 40 93 0
133 -26 25 -36 29 -83 28 -29 -1 -74 -6 -100 -11z m112 -95 c0 -17 -38 -63
-52 -63 -13 0 -9 88 5 93 18 7 47 -12 47 -30z"/>
<path d="M1560 1824 c-36 -8 -75 -16 -87 -19 -23 -5 -23 -7 -23 -189 l0 -183
94 21 c106 24 126 36 126 79 0 29 -1 29 -37 23 -21 -3 -48 -9 -60 -12 -21 -6
-23 -3 -23 30 0 31 4 36 28 42 56 12 63 16 73 42 15 40 6 53 -33 41 -54 -15
-68 -12 -68 16 0 19 7 26 28 31 72 16 77 19 80 57 4 43 3 43 -98 21z"/>
<path d="M1235 1756 c-104 -47 -155 -193 -102 -296 29 -58 74 -83 139 -76 56
6 123 38 138 66 6 11 9 57 8 103 l-3 84 -70 -16 c-60 -14 -70 -20 -73 -39 -5
-30 16 -54 39 -47 15 5 19 1 19 -17 0 -32 -18 -48 -51 -48 -81 0 -76 169 7
200 14 6 44 10 68 10 62 0 87 37 50 74 -20 20 -126 21 -169 2z"/>
<path d="M898 1658 l-68 -21 0 -189 0 -189 23 6 c68 21 72 26 77 98 l5 68 50
-51 c34 -34 57 -50 75 -50 60 0 67 56 14 111 l-37 38 25 30 c46 54 42 146 -7
165 -30 11 -89 5 -157 -16z m90 -90 c2 -20 -5 -36 -25 -55 l-28 -28 -3 44 c-4
57 3 73 30 69 17 -2 24 -11 26 -30z"/>
<path d="M733 1607 l-33 -10 0 -147 c0 -155 -6 -176 -47 -168 -16 3 -18 17
-21 136 -3 148 -5 152 -67 132 l-36 -12 3 -154 c3 -144 4 -155 26 -176 50 -51
183 -14 222 62 17 34 20 59 20 184 0 163 -4 172 -67 153z"/>
<path d="M318 1459 l-78 -30 0 -200 c0 -109 3 -199 8 -199 4 0 50 18 103 40
114 48 158 88 166 148 5 36 2 45 -24 70 l-29 30 19 27 c29 39 28 102 -2 126
-32 26 -73 23 -163 -12z m80 -80 c3 -25 -19 -59 -39 -59 -10 0 -12 73 -2 84
15 14 38 0 41 -25z m-4 -125 c27 -10 20 -60 -11 -84 l-28 -22 -3 42 c-5 65 4
78 42 64z"/>
<path d="M1770 1465 c-65 -21 -138 -81 -174 -144 -25 -47 -31 -68 -34 -142 -6
-131 24 -196 112 -241 80 -42 234 -22 308 40 47 40 58 77 58 200 l0 109 -117
-27 -118 -26 1 -43 c1 -48 16 -63 57 -58 26 3 28 1 25 -27 -2 -26 -9 -33 -40
-43 -78 -26 -123 18 -123 118 0 62 17 94 69 133 23 18 42 21 123 21 82 0 97 3
109 19 34 47 5 107 -58 120 -51 10 -150 5 -198 -9z"/>
<path d="M1460 1379 c-19 -6 -45 -21 -57 -35 -21 -23 -23 -35 -23 -137 l0
-112 -38 45 c-20 25 -61 71 -91 103 -60 63 -76 68 -154 41 l-47 -16 0 -274 c0
-151 4 -274 8 -274 27 0 103 35 123 56 21 23 24 37 29 144 l5 119 57 -67 c115
-135 123 -142 161 -142 93 0 97 14 97 315 0 273 6 254 -70 234z"/>
<path d="M944 1240 c-125 -43 -124 -41 -124 -355 0 -150 4 -245 10 -245 27 0
120 43 141 66 23 25 24 30 27 217 2 106 2 224 0 263 l-3 71 -51 -17z"/>
<path d="M680 1147 c-15 -7 -55 -62 -102 -142 l-78 -130 0 98 c0 53 -1 97 -3
97 -1 0 -38 -15 -82 -34 l-80 -33 -3 -277 c-1 -152 -1 -276 1 -276 2 0 35 13
73 28 46 19 73 37 81 53 8 14 13 65 13 124 l1 100 72 -77 c83 -89 112 -104
162 -84 39 17 55 42 55 86 0 26 -13 45 -65 99 -36 37 -65 71 -65 74 0 4 29 54
65 110 36 57 65 112 65 123 0 21 -34 64 -50 64 -4 0 -14 2 -22 5 -7 3 -24 -1
-38 -8z"/>
<path d="M2059 921 c-62 -62 -19 -161 71 -161 56 0 100 42 100 95 0 86 -109
128 -171 66z m121 -11 c45 -45 13 -130 -50 -130 -41 0 -70 31 -70 75 0 44 29
75 70 75 17 0 39 -9 50 -20z"/>
<path d="M2090 856 c0 -31 5 -56 10 -56 6 0 10 12 10 28 l1 27 24 -30 c13 -16
27 -26 31 -22 4 3 1 14 -6 23 -11 12 -11 17 -1 23 7 5 11 19 9 32 -2 20 -10
25 -40 27 l-38 3 0 -55z m60 19 c0 -8 -9 -15 -20 -15 -11 0 -20 7 -20 15 0 8
9 15 20 15 11 0 20 -7 20 -15z"/>
</g>
</svg>
